<?xml version="1.0" encoding="UTF-8"?>
<svg id="Layer_1" data-name="Layer 1" xmlns="http://www.w3.org/2000/svg" viewBox="0 0 187.27 148.05">
  <defs>
    <style>
      .cls-1 {
        fill: #696364;
      }

      .cls-2 {
        fill: #5a4d58;
      }

      .cls-3 {
        fill: #635e62;
      }

      .cls-4 {
        fill: #928790;
      }

      .cls-5 {
        fill: #6a5e68;
      }

      .cls-6 {
        fill: #c3c4c4;
      }

      .cls-7 {
        fill: #80757f;
      }

      .cls-8 {
        fill: #e7eaea;
      }

      .cls-9 {
        fill: #5d505b;
      }

      .cls-10 {
        fill: #e9efe9;
      }

      .cls-11 {
        fill: #fefefe;
      }

      .cls-12 {
        fill: #bebcbf;
      }

      .cls-13 {
        fill: #71656f;
      }

      .cls-14 {
        fill: #cdc9cd;
      }

      .cls-15 {
        fill: #726670;
      }
    </style>
  </defs>
  <g id="pIwQo9.tif">
    <g>
      <path class="cls-15" d="M133.5,32.18v.99c-2.81.05-10.94-1.04-11.81,1.63l-.14,28.21c-4.23-.06-8.53.27-12.74-.21l-19.8-29.45c-18.68-.41-37.39-.11-56.06-.19-5.3-.02-10.63.04-15.93,0-2.32-.02-4.65.04-6.97,0-.26-6.78.33-13.65.04-20.43-.15-3.59-2.59-8.2-.04-11.4,37.4,1.71,86.27,2.21,123.46,0-1.27,9.33.93,21.2,0,30.84h0Z"/>
      <path class="cls-4" d="M164.37,73.96c-6.97,1.41-14.27,1.17-21.4.98-36.25-.92-72.64-.98-109.03-.98,0-11.04.9-24.07,0-34.82-.15-1.83-1.38-3.89-1-5.97,18.67.08,37.39-.22,56.06.19l19.8,29.45c4.21.47,8.51.15,12.74.21,5.63.08,11.3-.04,16.93,0,8.55.07,17.69.96,25.89.99v9.95h0Z"/>
      <path class="cls-7" d="M164.37,84.9c-8.61,0-17.27-.07-25.89,0-5.63.04-11.3-.12-16.93,0-3.4.07-10.11-.81-12.51.93-4.56,3.28-12.78,21.72-17.9,26.88-.66.66-1.03,1.64-2.13,1.85-17.21.34-34.43.18-51.65.23-1.85,0-3.73-1.04-4.41-1.03.13-.94-.19-2.14,0-2.98,2.31-10.11,1-25.83,1-36.81,36.39,0,72.78.07,109.03.98,7.12.18,14.42.43,21.4-.98v10.94h0Z"/>
      <path class="cls-2" d="M138.48,114.75c-1.33-.03-2.66.03-3.98,0h-1c-3.97-.09-7.98.06-11.95,0v-29.85c5.63-.12,11.31.04,16.93,0v29.84h0Z"/>
      <path class="cls-9" d="M138.48,63.02c-5.63-.04-11.3.08-16.93,0l.14-28.21c.87-2.67,8.99-1.58,11.81-1.63h1c1.33-.03,2.66.03,3.98,0v29.84Z"/>
      <path class="cls-9" d="M10.05,33.17c-3.31-.06-6.65.04-9.96,0V3.32C.38,2.76-.58.6.64.27c3.05-.96,7.44.97,9.42,1.06-2.55,3.2-.11,7.81.04,11.4.29,6.78-.3,13.66-.04,20.43h0Z"/>
      <path class="cls-11" d="M142.47,33.17c-1.32.02-2.66-.03-3.98,0s-2.66-.03-3.98,0l-1-.99c.93-9.64-1.27-21.51,0-30.84,0-.07,1.02-.38,1-.99h7.96v32.83h0Z"/>
      <path class="cls-14" d="M142.47,147.57c-2.64.05-5.32-.07-7.96,0l-1-.99v-30.84l1-.99c1.33.03,2.66-.03,3.98,0s2.66-.02,3.98,0v32.83h0Z"/>
      <path class="cls-4" d="M187.27,73.96h-12.94c0-2.52-1.23-6.93-1-10.94.09-1.61-.53-4.5.93-5.54l13.01-.44c0,5.63,0,11.29,0,16.92Z"/>
      <path class="cls-7" d="M187.27,73.96v16.92l-13.01-.44c-1.46-1.03-.84-3.93-.93-5.54-.18-3.28.04-6.66,0-9.95,0-.07.99.28,1-.99h12.94Z"/>
      <path class="cls-9" d="M173.33,74.95h-8.96v-10.94c1.92,0,6.14-2,8.96-.99-.23,4.01,1.01,8.42,1,10.94,0,1.27-1,.92-1,.99Z"/>
      <path class="cls-2" d="M173.33,84.9h-8.96v-9.95h8.96c.04,3.29-.18,6.67,0,9.95Z"/>
      <path class="cls-10" d="M142.47,33.17V.35c1.65,1.03.99,3.77,1.01,5.46.09,7.29.08,14.62,0,21.91-.02,1.68.64,4.42-1.01,5.46h0Z"/>
      <path class="cls-6" d="M142.47,147.57v-32.83c1.65,1.04.99,3.77,1.01,5.46.11,8.64.81,19.25-1.01,27.37Z"/>
      <path class="cls-8" d="M133.5,1.34c.07,0-.1-.91,1-.99.02.62-.99.93-1,.99Z"/>
      <path class="cls-5" d="M133.5,146.58v.99c-40.77.74-82.66.53-123.46,0v-32.83c2.32-.04,4.65.04,6.97,0,5.21-.08,11.63-.99,15.93-.99.68,0,2.56,1.04,4.41,1.03,17.22-.05,34.44.12,51.65-.23,1.1-.21,1.47-1.19,2.13-1.85,5.12-5.16,13.34-23.6,17.9-26.88,2.41-1.74,9.11-.85,12.51-.93v29.85c3.96.06,7.98-.09,11.95,0v31.83h0Z"/>
      <path class="cls-5" d="M32.95,110.77c-8.02-6.87-12.95-17.44-13.94-27.85-.12-1.31.11-2.67,0-3.99h-1.99v-4.97h16.93c0,10.98,1.31,26.7-1,36.81h0Z"/>
      <path class="cls-2" d="M10.05,147.57h-1c-2.97-.08-5.99.06-8.96,0v-32.83c3.31-.04,6.65.06,9.96,0v32.83Z"/>
      <path class="cls-9" d="M33.94,39.14c-9.6,2.57-13.62,17.1-14.93,25.86h-1.99v-31.83c5.3.04,10.63-.02,15.93,0-.39,2.08.84,4.14,1,5.97h0Z"/>
      <path class="cls-2" d="M32.95,113.75c-4.3,0-10.72.92-15.93.99v-31.83h1.99c.99,10.42,5.92,20.99,13.94,27.85-.19.84.13,2.05,0,2.98h0Z"/>
      <path class="cls-1" d="M18.01,73.96h-1v-8.95h1.99c-.44,2.94-.98,5.96-1,8.95h0Z"/>
      <path class="cls-3" d="M19.01,82.91h-1.99v-3.98h1.99c.12,1.31-.12,2.67,0,3.98Z"/>
      <path class="cls-12" d="M133.5,147.57v-.99l1,.99h-1Z"/>
      <path class="cls-8" d="M133.5,33.17v-.99l1,.99h-1Z"/>
      <path class="cls-13" d="M33.94,73.96h-15.93c.02-2.99.55-6.01,1-8.95,1.32-8.76,5.33-23.29,14.93-25.86.9,10.74,0,23.78,0,34.82h0Z"/>
      <path class="cls-12" d="M133.5,115.74v-.99h1l-1,.99Z"/>
    </g>
  </g>
</svg>