<?xml version="1.0" encoding="UTF-8"?>
<svg id="Layer_1" data-name="Layer 1" xmlns="http://www.w3.org/2000/svg" viewBox="0 0 191 227">
  <defs>
    <style>
      .cls-1 {
        fill: #696364;
      }

      .cls-2 {
        fill: #5a4d58;
      }

      .cls-3 {
        fill: #635e62;
      }

      .cls-4 {
        fill: #928790;
      }

      .cls-5 {
        fill: #6a5e68;
      }

      .cls-6 {
        fill: #c3c4c4;
      }

      .cls-7 {
        fill: #80757f;
      }

      .cls-8 {
        fill: #e7eaea;
      }

      .cls-9 {
        fill: #5d505b;
      }

      .cls-10 {
        fill: #e9efe9;
      }

      .cls-11 {
        fill: #fefefe;
      }

      .cls-12 {
        fill: #bebcbf;
      }

      .cls-13 {
        fill: #97aa66;
      }

      .cls-14 {
        fill: #71656f;
      }

      .cls-15 {
        fill: #cdc9cd;
      }

      .cls-16 {
        fill: #726670;
      }
    </style>
  </defs>
  <g id="pIwQo9.tif">
    <g>
      <path class="cls-16" d="M53.72,73.68h.99c.05,2.81-1.04,10.94,1.63,11.81l28.21.14c-.06,4.23.27,8.53-.21,12.74l-29.45,19.8c-.41,18.68-.11,37.39-.19,56.06-.02,5.3.04,10.63,0,15.93-.02,2.32.04,4.65,0,6.97-6.78.26-13.65-.33-20.43-.04-3.59.15-8.2,2.59-11.4.04,1.71-37.4,2.21-86.27,0-123.46,9.33,1.27,21.2-.93,30.84,0Z"/>
      <path class="cls-4" d="M95.5,42.81c1.41,6.97,1.17,14.27.98,21.4-.92,36.25-.98,72.64-.98,109.03-11.04,0-24.07-.9-34.82,0-1.83.15-3.89,1.38-5.97,1,.08-18.67-.22-37.39.19-56.06l29.45-19.8c.47-4.21.15-8.51.21-12.74.08-5.63-.04-11.3,0-16.93.07-8.55.96-17.69.99-25.89h9.95Z"/>
      <path class="cls-7" d="M106.44,42.81c0,8.61-.07,17.27,0,25.89.04,5.63-.12,11.3,0,16.93.07,3.4-.81,10.11.93,12.51,3.28,4.56,21.72,12.78,26.88,17.9.66.66,1.64,1.03,1.85,2.13.34,17.21.18,34.43.23,51.65,0,1.85-1.04,3.73-1.03,4.41-.94-.13-2.14.19-2.98,0-10.11-2.31-25.83-1-36.81-1,0-36.39.07-72.78.98-109.03.18-7.12.43-14.42-.98-21.4h10.94Z"/>
      <path class="cls-2" d="M136.29,68.7c-.03,1.33.03,2.66,0,3.98,0,.33,0,.66,0,1-.09,3.97.06,7.98,0,11.95h-29.85c-.12-5.63.04-11.31,0-16.93h29.84Z"/>
      <path class="cls-9" d="M84.56,68.7c-.04,5.63.08,11.3,0,16.93l-28.21-.14c-2.67-.87-1.58-8.99-1.63-11.81,0-.33,0-.66,0-1-.03-1.33.03-2.66,0-3.98h29.84Z"/>
      <path class="cls-9" d="M54.71,197.13c-.06,3.31.04,6.65,0,9.96h-29.85c-.56-.29-2.72.67-3.05-.55-.96-3.05.97-7.44,1.06-9.42,3.2,2.55,7.81.11,11.4-.04,6.78-.29,13.66.3,20.43.04Z"/>
      <path class="cls-11" d="M54.71,64.71c.02,1.32-.03,2.66,0,3.98s-.03,2.66,0,3.98l-.99,1c-9.64-.93-21.51,1.27-30.84,0-.07,0-.38-1.02-.99-1v-7.96h32.83Z"/>
      <path class="cls-15" d="M169.11,64.71c.05,2.64-.07,5.32,0,7.96l-.99,1h-30.84l-.99-1c.03-1.33-.03-2.66,0-3.98s-.02-2.66,0-3.98h32.83Z"/>
      <path class="cls-4" d="M95.5,19.91v12.94c-2.52-.01-6.93,1.23-10.94,1-1.61-.09-4.5.53-5.54-.93l-.44-13.01c5.63,0,11.29,0,16.92,0Z"/>
      <path class="cls-7" d="M95.5,19.91c5.63,0,11.29,0,16.92,0l-.44,13.01c-1.03,1.46-3.93.84-5.54.93-3.28.18-6.66-.04-9.95,0-.07,0,.28-.99-.99-1v-12.94Z"/>
      <path class="cls-9" d="M96.49,33.85v8.96h-10.94c0-1.92-2-6.14-.99-8.96,4.01.23,8.42-1.01,10.94-1,1.27,0,.92,1,.99,1Z"/>
      <path class="cls-2" d="M106.44,33.85v8.96h-9.95v-8.96c3.29-.04,6.67.18,9.95,0Z"/>
      <path class="cls-10" d="M54.71,64.71H21.89c1.03-1.65,3.77-.99,5.46-1.01,7.29-.09,14.62-.08,21.91,0,1.68.02,4.42-.64,5.46,1.01Z"/>
      <path class="cls-6" d="M169.11,64.71h-32.83c1.04-1.65,3.77-.99,5.46-1.01,8.64-.11,19.25-.81,27.37,1.01Z"/>
      <path class="cls-8" d="M22.88,73.68c0-.07-.91.1-.99-1,.62-.02.93.99.99,1Z"/>
      <path class="cls-5" d="M168.12,73.68h.99c.74,40.77.53,82.66,0,123.46h-32.83c-.04-2.32.04-4.65,0-6.97-.08-5.21-.99-11.63-.99-15.93,0-.68,1.04-2.56,1.03-4.41-.05-17.22.12-34.44-.23-51.65-.21-1.1-1.19-1.47-1.85-2.13-5.16-5.12-23.6-13.34-26.88-17.9-1.74-2.41-.85-9.11-.93-12.51h29.85c.06-3.96-.09-7.98,0-11.95h31.83Z"/>
      <path class="cls-5" d="M132.31,174.23c-6.87,8.02-17.44,12.95-27.85,13.94-1.31.12-2.67-.11-3.99,0v1.99s-4.97,0-4.97,0v-16.93c10.98,0,26.7-1.31,36.81,1Z"/>
      <path class="cls-2" d="M169.11,197.13v1c-.08,2.97.06,5.99,0,8.96h-32.83c-.04-3.31.06-6.65,0-9.96h32.83Z"/>
      <path class="cls-9" d="M60.68,173.24c2.57,9.6,17.1,13.62,25.86,14.93v1.99h-31.83c.04-5.3-.02-10.63,0-15.93,2.08.39,4.14-.84,5.97-1Z"/>
      <path class="cls-2" d="M135.29,174.23c0,4.3.92,10.72.99,15.93h-31.83v-1.99c10.42-.99,20.99-5.92,27.85-13.94.84.19,2.05-.13,2.98,0Z"/>
      <path class="cls-1" d="M95.5,189.17v1h-8.95v-1.99c2.94.44,5.96.98,8.95,1Z"/>
      <path class="cls-3" d="M104.45,188.17v1.99h-3.98v-1.99c1.31-.12,2.67.12,3.98,0Z"/>
      <path class="cls-12" d="M169.11,73.68h-.99l.99-1c0,.33,0,.66,0,1Z"/>
      <path class="cls-13" d="M169.11,198.13v-1c0,.33,0,.63,0,1Z"/>
      <path class="cls-8" d="M54.71,73.68h-.99l.99-1c0,.33,0,.66,0,1Z"/>
      <path class="cls-14" d="M95.5,173.24v15.93c-2.99-.02-6.01-.55-8.95-1-8.76-1.32-23.29-5.33-25.86-14.93,10.74-.9,23.78,0,34.82,0Z"/>
      <path class="cls-12" d="M137.28,73.68h-.99c0-.33,0-.66,0-1l.99,1Z"/>
    </g>
  </g>
</svg>